<svg aria-hidden="true" style="position:absolute;width:0;height:0;overflow:hidden" xmlns="http://www.w3.org/2000/svg"><defs><symbol id="icon-close" viewBox="0 0 32 32"><path fill="#4c00fe" style="fill:var(--color1, #4c00fe)" d="M1.646 32a1.646 1.646 0 0 1-1.163-2.811L29.19.482a1.646 1.646 0 1 1 2.328 2.329L2.811 31.517A1.65 1.65 0 0 1 1.646 32z"/><path fill="#4c00fe" style="fill:var(--color1, #4c00fe)" d="M30.355 32c-.421 0-.843-.16-1.163-.483L.483 2.811A1.647 1.647 0 0 1 2.812.482l28.707 28.707A1.646 1.646 0 0 1 30.356 32z"/></symbol><symbol id="icon-ticket" width="29" height="21" viewBox="0 0 29 21" fill="#0E0E0E" xmlns="http://www.w3.org/2000/svg"><path d="M3.22222 0.833496L0 0.833496L0 20.1668H3.22222L3.22222 0.833496Z" fill="#0E0E0E"/>
<path d="M11.3266 0.833496L8.10439 0.833496L8.10439 20.1668H11.3266L11.3266 0.833496Z" fill="#0E0E0E"/>
<path d="M16.2088 0.833496L12.9866 0.833496L12.9866 20.1668H16.2088L16.2088 0.833496Z" fill="#0E0E0E"/>
<path d="M28.9999 0.833496L24.2154 0.833496L24.2154 20.1668H28.9999L28.9999 0.833496Z" fill="#0E0E0E"/>
<path d="M6.44449 0.833496L4.88219 0.833496L4.88219 20.1668H6.44449L6.44449 0.833496Z" fill="#0E0E0E"/>
<path d="M19.3333 0.833496L17.771 0.833496L17.771 20.1668H19.3333L19.3333 0.833496Z" fill="#0E0E0E"/>
<path d="M22.5555 0.833496L20.9932 0.833496L20.9932 20.1668H22.5555L22.5555 0.833496Z" fill="#0E0E0E"/></symbol></defs></svg>
<svg width="12" height="12" id="icon-loupe" fill="none" xmlns="http://www.w3.org/2000/svg"><path d="M1.509 1.509A5.118 5.118 0 0 1 5.152 0c1.376 0 2.67.536 3.643 1.509a5.118 5.118 0 0 1 1.51 3.643 5.114 5.114 0 0 1-1.27 3.386l2.862 2.861a.352.352 0 0 1-.498.498L8.538 9.036a5.114 5.114 0 0 1-3.386 1.268A5.118 5.118 0 0 1 1.51 8.795 5.118 5.118 0 0 1 0 5.152c0-1.376.536-2.67 1.509-3.643Zm.498 6.789a4.453 4.453 0 0 0 6.29 0 4.453 4.453 0 0 0 0-6.291A4.434 4.434 0 0 0 5.153.706a4.435 4.435 0 0 0-3.145 1.3 4.453 4.453 0 0 0 0 6.292Z" fill="#939393"/></svg>
<svg width="13" height="8" id="icon-down" fill="none" xmlns="http://www.w3.org/2000/svg"><path d="M6.5 8 .005.5h12.99L6.5 8Z" fill="#939393"/></svg>