<svg aria-hidden="true" style="position: absolute; width: 0; height: 0; overflow: hidden;" version="1.1" xmlns="http://www.w3.org/2000/svg" xmlns:xlink="http://www.w3.org/1999/xlink">
<defs>
<symbol id="icon-close" viewBox="0 0 32 32">
<path d="M1.646 32c-0 0-0 0-0 0-0.909 0-1.646-0.737-1.646-1.646 0-0.455 0.185-0.867 0.483-1.165l28.707-28.707c0.298-0.298 0.71-0.483 1.165-0.483 0.91 0 1.647 0.737 1.647 1.647 0 0.455-0.184 0.866-0.482 1.164l-28.709 28.707c-0.298 0.298-0.71 0.482-1.165 0.483h-0z"></path>
<path d="M30.355 32c-0.422 0-0.844-0.16-1.165-0.483l-28.707-28.707c-0.298-0.298-0.483-0.71-0.483-1.165 0-0.909 0.737-1.646 1.646-1.646 0.454 0 0.866 0.184 1.164 0.482v0l28.707 28.708c0.298 0.298 0.483 0.71 0.483 1.165 0 0.909-0.736 1.646-1.645 1.646h-0z"></path>
</symbol>
<symbol id="icon-line" viewBox="0 0 7200 32">
<path fill="none" stroke="#939393" style="stroke: var(--color2, #939393)" stroke-linejoin="miter" stroke-linecap="butt" stroke-miterlimit="4" stroke-width="32" d="M0 16h7200"></path>
</symbol>
<symbol id="icon-down" viewBox="0 0 52 32">
<path fill="#939393" style="fill: var(--color2, #939393)" d="M26 32l-25.98-30h51.96l-25.98 30z"></path>
</symbol>
<symbol id="icon-up" viewBox="0 0 52 32">
<path fill="#939393" style="fill: var(--color2, #939393)" d="M26 0l25.98 30h-51.96l25.98-30z"></path>
</symbol>
<symbol id="icon-loupe" viewBox="0 0 32 32">
<path fill="" style="" d="M4.024 4.024c2.472-2.486 5.895-4.024 9.677-4.024 0.013 0 0.026 0 0.040 0h-0.002c3.669 0 7.12 1.429 9.715 4.024 2.487 2.473 4.027 5.896 4.027 9.68 0 0.012-0 0.025-0 0.037v-0.002c0 0.010 0 0.023 0 0.035 0 3.453-1.284 6.607-3.4 9.010l0.013-0.015 7.632 7.629c0.17 0.17 0.275 0.405 0.275 0.664 0 0.519-0.42 0.939-0.939 0.939-0.259 0-0.494-0.105-0.664-0.275l-7.629-7.629c-2.387 2.1-5.538 3.381-8.988 3.381-0.014 0-0.029-0-0.043-0h0.002c-0.010 0-0.023 0-0.035 0-3.782 0-7.205-1.538-9.677-4.023l-0.001-0.001c-2.487-2.473-4.027-5.896-4.027-9.68 0-0.012 0-0.025 0-0.037v0.002c0-3.669 1.429-7.12 4.024-9.715zM5.352 22.128c2.148 2.143 5.113 3.468 8.387 3.468s6.239-1.325 8.387-3.468l-0 0c2.144-2.148 3.469-5.113 3.469-8.388s-1.326-6.24-3.47-8.388l0 0c-2.14-2.143-5.099-3.469-8.367-3.469-0.006 0-0.012 0-0.018 0h0.001c-0.006 0-0.014-0-0.021-0-3.267 0-6.225 1.325-8.365 3.467l-0 0c-2.145 2.148-3.471 5.114-3.471 8.389s1.326 6.241 3.471 8.389l-0-0z"></path>
</symbol>
</defs>
</svg>


